<?xml version="1.0" encoding="utf-8"?>
<!-- Generator: Adobe Illustrator 16.0.0, SVG Export Plug-In . SVG Version: 6.00 Build 0)  -->
<!DOCTYPE svg PUBLIC "-//W3C//DTD SVG 1.1//EN" "http://www.w3.org/Graphics/SVG/1.1/DTD/svg11.dtd">
<svg version="1.1" id="Layer_1" xmlns="http://www.w3.org/2000/svg" xmlns:xlink="http://www.w3.org/1999/xlink" x="0px" y="0px"
	 width="467.998px" height="198px" viewBox="0 0 467.998 198" enable-background="new 0 0 467.998 198" xml:space="preserve">
<rect fill="#ED1C24" width="234" height="198"/>
<g>
	<defs>
		<rect id="SVGID_1_" x="-36" y="-36" width="540" height="270"/>
	</defs>
	<clipPath id="SVGID_2_">
		<use xlink:href="#SVGID_1_"  overflow="visible"/>
	</clipPath>
	<path clip-path="url(#SVGID_2_)" fill="#FFFFFF" d="M75.407,111.82c0-6.049,4.73-10.889,10.89-10.889
		c6.049,0,10.888,4.84,10.888,10.889c0,6.16-4.839,10.891-10.888,10.891C80.137,122.711,75.407,117.98,75.407,111.82"/>
	<path clip-path="url(#SVGID_2_)" fill="#FFFFFF" d="M76.132,180.39v-52.583c0-0.963,0.535-1.605,1.605-1.605h17.12
		c0.962,0,1.604,0.643,1.604,1.605v52.583c0,0.963-0.535,1.604-1.604,1.604h-17.12C76.775,181.993,76.132,181.353,76.132,180.39"/>
	<path clip-path="url(#SVGID_2_)" fill="#FFFFFF" d="M15.991,75.167v-38.09c0-14.123,10.165-22.148,25.144-22.148
		s25.144,8.025,25.144,22.148v7.811c0,0.963-0.535,1.605-1.605,1.605h-17.12c-0.962,0-1.604-0.642-1.604-1.605v-5.885
		c0-3.103-0.749-6.099-4.815-6.099s-4.815,2.996-4.815,6.099v34.238c0,3.103,0.749,6.099,4.815,6.099s4.815-2.996,4.815-6.099
		v-5.885c0-0.962,0.642-1.605,1.604-1.605h17.12c1.07,0,1.605,0.643,1.605,1.605v7.811c0,14.124-10.165,22.148-25.144,22.148
		S15.991,89.291,15.991,75.167"/>
	<path clip-path="url(#SVGID_2_)" fill="#FFFFFF" d="M71.171,74.632v-37.02c0-14.658,10.164-22.683,25.144-22.683
		c14.979,0,25.143,8.025,25.143,22.683v37.02c0,14.658-10.164,22.683-25.143,22.683C81.335,97.314,71.171,89.29,71.171,74.632
		 M101.129,72.706V39.538c0-3.638-0.749-6.634-4.814-6.634c-4.066,0-4.815,2.996-4.815,6.634v33.168
		c0,3.638,0.749,6.634,4.815,6.634C100.38,79.34,101.129,76.344,101.129,72.706"/>
	<path clip-path="url(#SVGID_2_)" fill="#FFFFFF" d="M126.36,94.64V17.604c0-0.963,0.536-1.605,1.606-1.605h23.539
		c14.979,0,25.144,8.025,25.144,22.683v34.88c0,14.659-10.165,22.683-25.144,22.683h-23.539
		C127.003,96.245,126.36,95.603,126.36,94.64 M151.505,78.27c4.065,0,4.814-2.996,4.814-6.634V40.607
		c0-3.638-0.749-6.634-4.814-6.634h-3.21c-0.963,0-1.605,0.642-1.605,1.605v41.086c0,0.963,0.642,1.605,1.605,1.605H151.505z"/>
	<path clip-path="url(#SVGID_2_)" fill="#FFFFFF" d="M181.476,94.64V17.604c0-0.963,0.535-1.605,1.604-1.605h33.276
		c0.963,0,1.605,0.642,1.605,1.605v14.765c0,0.963-0.642,1.605-1.605,1.605H203.41c-0.963,0-1.605,0.642-1.605,1.605v9.736
		c0,0.964,0.642,1.605,1.605,1.605h12.946c0.963,0,1.605,0.642,1.605,1.605v14.766c0,0.963-0.642,1.604-1.605,1.604H203.41
		c-0.963,0-1.605,0.642-1.605,1.605v10.165c0,0.963,0.642,1.605,1.605,1.605h12.946c0.963,0,1.605,0.642,1.605,1.605V94.64
		c0,0.963-0.642,1.605-1.605,1.605H183.08C182.118,96.245,181.476,95.603,181.476,94.64"/>
	<path clip-path="url(#SVGID_2_)" fill="#FFFFFF" d="M33.111,179.962l-17.547-76.288c-0.428-1.925,0.857-1.925,1.926-1.925h16.477
		c1.498,0,2.14,0,2.461,1.712l7.062,37.234c0.107,0.641,0.963,0.641,1.07,0l7.062-37.234c0.32-1.712,0.963-1.712,2.461-1.712h16.476
		c1.071,0,2.355,0,1.926,1.925l-17.547,76.288c-0.428,1.712-0.641,2.032-2.461,2.032H35.572
		C33.754,181.994,33.432,181.674,33.111,179.962"/>
	<path clip-path="url(#SVGID_2_)" fill="#FFFFFF" d="M101.297,180.39v-77.036c0-0.963,0.535-1.604,1.604-1.604h33.276
		c0.963,0,1.605,0.642,1.605,1.604v14.765c0,0.964-0.642,1.605-1.605,1.605h-12.946c-0.963,0-1.605,0.642-1.605,1.604v9.736
		c0,0.964,0.642,1.605,1.605,1.605h12.946c0.963,0,1.605,0.643,1.605,1.605v14.766c0,0.963-0.642,1.604-1.605,1.604h-12.946
		c-0.963,0-1.605,0.642-1.605,1.605v10.164c0,0.963,0.642,1.605,1.605,1.605h12.946c0.963,0,1.605,0.642,1.605,1.605v14.765
		c0,0.963-0.642,1.604-1.605,1.604h-33.276C101.939,181.993,101.297,181.353,101.297,180.39"/>
	<path clip-path="url(#SVGID_2_)" fill="#FFFFFF" d="M142.541,178.484c0-1.991,1.557-3.584,3.584-3.584
		c1.99,0,3.583,1.593,3.583,3.584c0,2.026-1.593,3.582-3.583,3.582C144.098,182.066,142.541,180.511,142.541,178.484"/>
	<path clip-path="url(#SVGID_2_)" fill="#FFFFFF" d="M153.582,163.065c0-5.501,3.945-8.578,9.482-8.578
		c5.539,0,9.484,3.077,9.484,8.578v1.556c0,0.326-0.218,0.543-0.543,0.543h-5.791c-0.362,0-0.543-0.217-0.543-0.543v-0.904
		c0-1.773-0.868-3.148-2.607-3.148c-1.773,0-2.605,1.375-2.605,3.148v9.41c0,1.773,0.832,3.148,2.605,3.148
		c1.739,0,2.607-1.375,2.607-3.148v-0.904c0-0.326,0.181-0.543,0.543-0.543h5.791c0.325,0,0.543,0.217,0.543,0.543v1.557
		c0,5.501-3.945,8.577-9.484,8.577c-5.537,0-9.482-3.076-9.482-8.577V163.065z"/>
	<path clip-path="url(#SVGID_2_)" fill="#FFFFFF" d="M175.846,181.379l6.479-25.879c0.144-0.542,0.254-0.65,0.687-0.65h5.43
		c0.434,0,0.543,0.108,0.687,0.65l6.479,25.879c0.108,0.435-0.182,0.615-0.652,0.615h-4.995c-0.433,0-0.615-0.107-0.723-0.543
		l-0.471-1.99c-0.072-0.254-0.145-0.543-0.687-0.543h-4.706c-0.543,0-0.616,0.289-0.688,0.543l-0.471,1.99
		c-0.107,0.436-0.289,0.543-0.722,0.543h-4.995C176.026,181.994,175.736,181.813,175.846,181.379 M187.355,173.199
		c0.253,0,0.325-0.181,0.289-0.398l-1.737-7.311c-0.036-0.217-0.325-0.217-0.363,0l-1.736,7.311
		c-0.037,0.218,0.035,0.398,0.289,0.398H187.355z"/>
	<rect x="233.998" clip-path="url(#SVGID_2_)" fill="#E6E7E8" width="234" height="198"/>
	<path clip-path="url(#SVGID_2_)" d="M272.408,55.714c0,0.486,0.018,0.54,0.504,0.54h1.387c0.954,0,1.152-0.126,1.332-1.008
		l0.09-0.432c0.125-0.162,0.576-0.144,0.685,0.018c-0.036,0.576-0.055,1.242-0.055,1.927c0,0.666,0.019,1.332,0.055,1.872
		c-0.108,0.162-0.56,0.181-0.685,0.019l-0.09-0.433c-0.18-0.864-0.378-1.008-1.332-1.008h-1.387c-0.486,0-0.504,0.054-0.504,0.54
		v2.431c0,1.674,0.107,1.818,0.918,1.927l0.666,0.089c0.126,0.108,0.126,0.522,0,0.63c-1.116-0.036-1.998-0.053-2.862-0.053
		c-0.829,0-1.729,0.017-2.81,0.053c-0.144-0.108-0.144-0.522,0-0.63l0.595-0.089c0.81-0.126,0.918-0.253,0.918-1.927v-6.698
		c0-1.675-0.108-1.837-0.918-1.963l-0.36-0.054c-0.162-0.108-0.162-0.559,0.036-0.63c0.774,0.036,1.675,0.054,2.539,0.054h3.78
		c1.152,0,2.179-0.018,2.432-0.054c0,0.306,0,1.603,0.035,2.809c-0.072,0.198-0.468,0.216-0.684,0.072
		c-0.198-0.738-0.343-1.171-0.522-1.404c-0.306-0.379-0.846-0.595-1.765-0.595h-1.404c-0.594,0-0.594,0.036-0.594,0.738V55.714z"/>
	<path clip-path="url(#SVGID_2_)" d="M293.697,56.777c0,3.924-2.629,6.284-6.5,6.284c-3.619,0-6.248-2.377-6.248-6.14
		c0-3.565,2.665-6.32,6.428-6.32C291.122,50.601,293.697,53.121,293.697,56.777 M287.233,51.429c-2.215,0-3.403,2.07-3.403,5.078
		c0,2.196,0.774,5.726,3.709,5.726c2.359,0,3.277-2.305,3.277-5.222C290.816,53.932,289.466,51.429,287.233,51.429"/>
	<path clip-path="url(#SVGID_2_)" d="M308.603,59.711c0,1.171,0,2.305,0.036,2.899c-0.126,0.216-0.63,0.414-1.063,0.414
		c-0.018,0-0.612-0.917-1.458-1.962l-4.159-5.15c-1.045-1.278-1.639-2.034-1.963-2.305c-0.09,0.18-0.09,0.487-0.09,1.153v3.493
		c0,1.458,0.071,2.809,0.27,3.295c0.162,0.378,0.576,0.504,1.045,0.576l0.504,0.072c0.144,0.144,0.106,0.522,0,0.63
		c-0.973-0.036-1.692-0.053-2.413-0.053c-0.666,0-1.332,0.017-2.017,0.053c-0.107-0.108-0.144-0.486,0-0.63l0.307-0.054
		c0.485-0.09,0.846-0.216,0.99-0.594c0.197-0.486,0.252-1.837,0.252-3.295V53.68c0-0.99-0.019-1.279-0.126-1.531
		c-0.145-0.306-0.396-0.522-1.026-0.612l-0.504-0.072c-0.126-0.144-0.108-0.576,0.071-0.63c0.847,0.036,1.747,0.054,2.485,0.054
		c0.612,0,1.134-0.018,1.512-0.054c0.181,0.81,1.351,2.179,2.972,4.105l1.512,1.783c0.793,0.936,1.314,1.566,1.729,1.98
		c0.072-0.179,0.072-0.486,0.072-0.81v-2.485c0-1.459-0.072-2.808-0.27-3.295c-0.162-0.378-0.559-0.504-1.045-0.576l-0.486-0.072
		c-0.144-0.144-0.107-0.523,0-0.63c0.973,0.036,1.675,0.054,2.413,0.054c0.666,0,1.314-0.018,2.017-0.054
		c0.108,0.107,0.145,0.486,0,0.63l-0.324,0.054c-0.468,0.072-0.811,0.216-0.972,0.594c-0.198,0.487-0.271,1.836-0.271,3.295V59.711z
		"/>
	<path clip-path="url(#SVGID_2_)" d="M315.411,53.806c0-1.711-0.036-2.053-0.863-2.143l-0.344-0.036
		c-0.18-0.09-0.18-0.612,0.036-0.63c1.513-0.09,2.917-0.162,4.825-0.162c1.477,0,2.953,0.144,4.195,0.594
		c2.359,0.847,3.655,2.971,3.655,5.222c0,2.413-1.152,4.357-3.223,5.384c-1.225,0.612-2.701,0.845-4.556,0.845
		c-0.846,0-1.746-0.107-2.395-0.107c-0.864,0-1.782,0.017-2.809,0.054c-0.145-0.109-0.145-0.541,0-0.63l0.558-0.09
		c0.811-0.126,0.919-0.271,0.919-1.927V53.806z M317.985,59.514c0,0.99,0.036,1.638,0.36,2.017c0.324,0.359,0.846,0.521,1.494,0.521
		c3.115,0,4.178-2.772,4.178-5.222c0-3.24-1.711-5.167-4.97-5.167c-0.486,0-0.828,0.09-0.937,0.235
		c-0.107,0.143-0.126,0.485-0.126,1.044V59.514z"/>
	<path clip-path="url(#SVGID_2_)" d="M333.347,58.704c-0.433,0-0.486,0.018-0.595,0.36l-0.702,2.088
		c-0.107,0.361-0.126,0.505-0.126,0.649c0,0.108,0.234,0.216,0.738,0.306l0.54,0.09c0.108,0.126,0.145,0.54-0.035,0.63
		c-0.631-0.036-1.279-0.036-2.035-0.054c-0.612,0-1.026,0.054-1.854,0.054c-0.198-0.108-0.18-0.486-0.054-0.63l0.486-0.054
		c0.432-0.054,0.792-0.198,1.098-0.9c0.307-0.721,0.648-1.585,1.135-2.881l1.639-4.393c0.414-1.135,0.72-1.765,0.666-2.287
		c0.864-0.199,1.53-1.08,1.566-1.08c0.234,0,0.342,0.089,0.414,0.36c0.144,0.521,0.36,1.188,0.811,2.467l2.448,7.057
		c0.378,1.08,0.54,1.495,1.206,1.603l0.685,0.108c0.108,0.09,0.145,0.522-0.018,0.63c-0.864-0.036-1.837-0.054-2.773-0.054
		c-0.9,0-1.603,0.018-2.431,0.054c-0.198-0.108-0.235-0.486-0.036-0.63l0.576-0.09c0.414-0.072,0.486-0.198,0.486-0.306
		c0-0.126-0.126-0.558-0.342-1.225l-0.486-1.548c-0.09-0.288-0.234-0.324-0.864-0.324H333.347z M335.399,57.75
		c0.414,0,0.504-0.055,0.36-0.522l-0.469-1.458c-0.252-0.775-0.576-1.748-0.738-2.125c-0.144,0.414-0.504,1.386-0.774,2.214
		l-0.45,1.351c-0.161,0.485-0.071,0.54,0.379,0.54H335.399z"/>
	<path clip-path="url(#SVGID_2_)" d="M347.792,52.24c0-0.433,0-0.522-0.433-0.522h-1.116c-1.314,0-1.692,0.72-2.232,2.035
		c-0.216,0.107-0.559,0.071-0.666-0.162c0.378-1.244,0.468-2.36,0.593-3.062c0.073-0.054,0.163-0.09,0.253-0.09
		s0.181,0.019,0.252,0.072c0.091,0.306,0.145,0.378,1.513,0.378h6.698c1.188,0,1.458-0.017,1.62-0.396
		c0.072-0.035,0.126-0.054,0.234-0.054s0.234,0.072,0.271,0.126c-0.181,0.613-0.307,2.071-0.271,3.097
		c-0.09,0.162-0.576,0.198-0.666,0.055c-0.307-1.153-0.559-1.999-1.909-1.999h-1.08c-0.432,0-0.486,0.053-0.486,0.522v7.94
		c0,1.674,0.108,1.819,0.919,1.927l0.72,0.09c0.126,0.107,0.126,0.522,0,0.63c-1.17-0.036-2.07-0.054-2.881-0.054
		c-0.864,0-1.801,0.018-3.062,0.054c-0.144-0.108-0.144-0.523,0-0.63l0.811-0.09c0.811-0.091,0.919-0.253,0.919-1.927V52.24z"/>
	<path clip-path="url(#SVGID_2_)" d="M362.559,60.144c0,1.692,0.108,1.818,0.937,1.963l0.504,0.09
		c0.145,0.107,0.126,0.521-0.018,0.63c-0.973-0.037-1.854-0.054-2.701-0.054c-0.864,0-1.765,0.017-2.736,0.054
		c-0.145-0.109-0.145-0.523,0-0.63l0.504-0.09c0.828-0.145,0.937-0.271,0.937-1.963v-6.626c0-1.692-0.108-1.818-0.937-1.963
		l-0.504-0.09c-0.145-0.108-0.145-0.522,0-0.63c0.972,0.037,1.872,0.054,2.736,0.054c0.847,0,1.747-0.017,2.719-0.054
		c0.145,0.108,0.145,0.522,0,0.63l-0.504,0.09c-0.828,0.145-0.937,0.271-0.937,1.963V60.144z"/>
	<path clip-path="url(#SVGID_2_)" d="M380.428,56.777c0,3.924-2.629,6.284-6.5,6.284c-3.619,0-6.248-2.377-6.248-6.14
		c0-3.565,2.665-6.32,6.428-6.32C377.853,50.601,380.428,53.121,380.428,56.777 M373.964,51.429c-2.215,0-3.403,2.07-3.403,5.078
		c0,2.196,0.774,5.726,3.709,5.726c2.359,0,3.277-2.305,3.277-5.222C377.547,53.932,376.196,51.429,373.964,51.429"/>
	<path clip-path="url(#SVGID_2_)" d="M395.333,59.711c0,1.171,0,2.305,0.036,2.899c-0.126,0.216-0.63,0.414-1.062,0.414
		c-0.019,0-0.612-0.917-1.459-1.962l-4.159-5.15c-1.043-1.278-1.639-2.034-1.963-2.305c-0.09,0.18-0.09,0.487-0.09,1.153v3.493
		c0,1.458,0.072,2.809,0.271,3.295c0.162,0.378,0.576,0.504,1.044,0.576l0.504,0.072c0.145,0.144,0.107,0.522,0,0.63
		c-0.972-0.036-1.692-0.053-2.412-0.053c-0.666,0-1.333,0.017-2.017,0.053c-0.108-0.108-0.145-0.486,0-0.63l0.306-0.054
		c0.486-0.09,0.847-0.216,0.99-0.594c0.197-0.486,0.252-1.837,0.252-3.295V53.68c0-0.99-0.018-1.279-0.126-1.531
		c-0.144-0.306-0.396-0.522-1.026-0.612l-0.504-0.072c-0.126-0.144-0.108-0.576,0.072-0.63c0.846,0.036,1.746,0.054,2.484,0.054
		c0.612,0,1.135-0.018,1.513-0.054c0.18,0.81,1.351,2.179,2.971,4.105l1.513,1.783c0.792,0.936,1.314,1.566,1.729,1.98
		c0.072-0.179,0.072-0.486,0.072-0.81v-2.485c0-1.459-0.072-2.808-0.271-3.295c-0.162-0.378-0.558-0.504-1.044-0.576l-0.486-0.072
		c-0.145-0.144-0.108-0.523,0-0.63c0.973,0.036,1.676,0.054,2.413,0.054c0.666,0,1.313-0.018,2.017-0.054
		c0.107,0.107,0.144,0.486,0,0.63l-0.324,0.054c-0.469,0.072-0.811,0.216-0.973,0.594c-0.198,0.487-0.271,1.836-0.271,3.295V59.711z
		"/>
	<path clip-path="url(#SVGID_2_)" d="M408.902,53.806c0-1.711-0.036-2.053-0.863-2.143l-0.344-0.036
		c-0.18-0.09-0.18-0.612,0.036-0.63c1.513-0.09,2.917-0.162,4.825-0.162c1.477,0,2.953,0.144,4.195,0.594
		c2.359,0.847,3.655,2.971,3.655,5.222c0,2.413-1.152,4.357-3.223,5.384c-1.225,0.612-2.701,0.845-4.556,0.845
		c-0.846,0-1.746-0.107-2.395-0.107c-0.864,0-1.782,0.017-2.809,0.054c-0.145-0.109-0.145-0.541,0-0.63l0.558-0.09
		c0.811-0.126,0.919-0.271,0.919-1.927V53.806z M411.477,59.514c0,0.99,0.036,1.638,0.36,2.017c0.324,0.359,0.846,0.521,1.493,0.521
		c3.116,0,4.179-2.772,4.179-5.222c0-3.24-1.711-5.167-4.97-5.167c-0.486,0-0.828,0.09-0.937,0.235
		c-0.107,0.143-0.126,0.485-0.126,1.044V59.514z"/>
	<path clip-path="url(#SVGID_2_)" d="M428.093,55.571c0,0.504,0.018,0.54,0.504,0.54h1.242c0.937,0,1.152-0.126,1.332-0.99
		l0.091-0.45c0.126-0.145,0.576-0.145,0.666,0.017c-0.036,0.576-0.054,1.225-0.054,1.909s0.018,1.332,0.054,1.909
		c-0.09,0.162-0.54,0.179-0.666,0.018l-0.091-0.45c-0.18-0.864-0.396-1.009-1.332-1.009h-1.242c-0.486,0-0.504,0.019-0.504,0.559
		v2.142c0,0.828,0.071,1.405,0.288,1.71c0.233,0.324,0.576,0.469,1.891,0.469c1.566,0,2.179-0.055,3.169-2.089
		c0.144-0.198,0.594-0.126,0.666,0.09c-0.072,0.937-0.504,2.395-0.757,2.881c-0.954-0.036-2.683-0.054-4.159-0.054h-2.341
		c-0.864,0-1.746,0.018-3.097,0.054c-0.144-0.109-0.144-0.54,0-0.63l0.847-0.126c0.81-0.126,0.918-0.234,0.918-1.891v-6.715
		c0-1.639-0.108-1.748-0.918-1.91l-0.45-0.089c-0.161-0.109-0.145-0.523,0.036-0.63c0.846,0.036,1.729,0.053,2.593,0.053h3.816
		c1.152,0,2.179-0.017,2.413-0.053c0.019,0.288,0.145,1.584,0.234,2.791c-0.072,0.197-0.486,0.233-0.666,0.071
		c-0.198-0.63-0.45-1.17-0.685-1.422c-0.342-0.343-0.882-0.559-1.765-0.559h-1.44c-0.594,0-0.594,0.037-0.594,0.703V55.571z"/>
	<path clip-path="url(#SVGID_2_)" d="M271.22,77.704c0-3.359-0.064-3.871-2.08-4.031l-0.8-0.065c-0.192-0.128-0.128-0.704,0.063-0.8
		c1.792,0.065,2.879,0.096,4.16,0.096c1.248,0,2.336-0.031,3.936-0.096c0.192,0.096,0.256,0.672,0.064,0.8l-0.769,0.065
		c-1.888,0.16-1.951,0.672-1.951,4.031V88.84c0,2.015,0.096,2.847,0.672,3.455c0.351,0.352,0.96,0.736,3.487,0.736
		c2.72,0,3.392-0.128,3.903-0.416c0.641-0.384,1.473-1.536,2.112-3.168c0.192-0.16,0.8-0.031,0.8,0.193
		c0,0.351-0.896,3.615-1.344,4.479c-1.632-0.063-4.672-0.096-7.968-0.096h-2.943c-1.344,0-2.368,0.033-4.16,0.096
		c-0.191-0.096-0.256-0.607-0.063-0.8l0.96-0.095c1.855-0.193,1.92-0.641,1.92-4V77.704z"/>
	<path clip-path="url(#SVGID_2_)" d="M288.103,74.696c0,2.208-1.729,3.744-3.744,4.352c-0.256-0.128-0.384-0.448-0.224-0.672
		c1.184-0.544,2.432-1.44,2.432-2.751c0-1.217-0.991-1.761-1.6-1.792c-0.448-0.033-0.864-0.288-0.864-0.897
		c0-0.479,0.288-1.311,1.536-1.311C286.95,71.625,288.103,73.033,288.103,74.696"/>
	<path clip-path="url(#SVGID_2_)" d="M299.225,83.687c-1.535,0-1.6,0.064-1.6,1.024v4.512c0,3.36,0.16,3.808,1.952,4l0.928,0.096
		c0.192,0.128,0.128,0.704-0.064,0.8c-1.728-0.064-2.815-0.096-4.063-0.096c-1.376,0-2.465,0.063-3.712,0.096
		c-0.191-0.096-0.256-0.608-0.063-0.8l0.544-0.096c1.792-0.32,1.855-0.64,1.855-4V77.704c0-3.36-0.224-3.904-1.888-4.032
		l-0.832-0.064c-0.191-0.128-0.128-0.704,0.064-0.8c1.566,0.032,2.655,0.096,4.031,0.096c1.248,0,2.336-0.031,3.712-0.096
		c0.192,0.096,0.256,0.672,0.064,0.8l-0.608,0.064c-1.855,0.192-1.92,0.672-1.92,4.032v3.679c0,0.992,0.064,1.025,1.6,1.025h9.151
		c1.536,0,1.601-0.033,1.601-1.025v-3.679c0-3.36-0.064-3.84-1.952-4.032l-0.608-0.064c-0.191-0.128-0.129-0.704,0.064-0.8
		c1.472,0.065,2.56,0.096,3.871,0.096c1.248,0,2.336-0.031,3.776-0.096c0.191,0.096,0.256,0.672,0.063,0.8l-0.672,0.064
		c-1.855,0.192-1.92,0.672-1.92,4.032v11.519c0,3.36,0.064,3.776,1.92,4l0.768,0.096c0.192,0.128,0.129,0.704-0.063,0.8
		c-1.536-0.064-2.624-0.096-3.872-0.096c-1.312,0-2.463,0.032-3.871,0.096c-0.193-0.096-0.256-0.608-0.064-0.8l0.608-0.096
		c1.952-0.32,1.952-0.64,1.952-4v-4.512c0-0.96-0.064-1.024-1.601-1.024H299.225z"/>
	<path clip-path="url(#SVGID_2_)" d="M318.63,83.688c0-6.4,4.8-11.295,11.392-11.295c7.392,0,11.104,5.343,11.104,10.975
		c0,6.463-4.928,11.167-11.104,11.167C322.918,94.535,318.63,89.446,318.63,83.688 M337.925,84.359
		c0-5.28-2.336-10.975-8.447-10.975c-3.328,0-7.647,2.271-7.647,9.279c0,4.735,2.304,10.879,8.607,10.879
		C334.277,93.542,337.925,90.663,337.925,84.359 M329.413,67.208c0.479-0.416,0.896-0.416,1.345,0l3.903,3.552
		c0,0.288-0.192,0.608-0.384,0.639l-3.712-1.855c-0.448-0.224-0.576-0.224-1.023,0l-3.616,1.855c-0.288,0-0.416-0.351-0.416-0.639
		L329.413,67.208z"/>
	<path clip-path="url(#SVGID_2_)" d="M349.778,89.223c0,3.359,0.063,3.775,2.112,4l0.863,0.096c0.192,0.16,0.128,0.704-0.063,0.8
		c-1.824-0.064-2.88-0.096-4.16-0.096c-1.344,0-2.496,0.032-3.903,0.096c-0.192-0.096-0.256-0.608-0.064-0.8l0.672-0.096
		c1.855-0.257,1.92-0.641,1.92-4V77.415c0-2.719-0.064-3.263-1.504-3.423l-1.151-0.128c-0.225-0.192-0.192-0.672,0.063-0.8
		c1.695-0.224,3.68-0.256,6.336-0.256c2.655,0,4.64,0.353,6.144,1.28c1.472,0.928,2.56,2.592,2.56,4.8
		c0,2.943-1.824,4.415-3.199,5.087c-1.408,0.672-3.104,0.96-4.416,0.96c-0.225-0.096-0.225-0.575-0.032-0.64
		c3.456-0.639,4.704-2.592,4.704-5.376c0-3.103-1.824-5.119-5.152-5.119c-1.695,0-1.728,0.128-1.728,1.152V89.223z"/>
	<path clip-path="url(#SVGID_2_)" d="M365.004,77.768c0-3.392-0.063-3.936-1.951-4.096l-0.801-0.064
		c-0.191-0.128-0.128-0.704,0.063-0.8c1.601,0.064,2.688,0.096,4.032,0.096c1.28,0,2.368-0.032,3.968-0.096
		c0.192,0.096,0.256,0.672,0.064,0.8l-0.8,0.064c-1.889,0.16-1.952,0.704-1.952,4.096v11.391c0,3.392,0.063,3.839,1.952,4.064
		l0.8,0.096c0.191,0.128,0.128,0.704-0.064,0.8c-1.6-0.064-2.688-0.096-3.968-0.096c-1.344,0-2.432,0.032-4.032,0.096
		c-0.191-0.096-0.255-0.608-0.063-0.8l0.801-0.096c1.888-0.225,1.951-0.672,1.951-4.064V77.768z"/>
	<path clip-path="url(#SVGID_2_)" d="M384.99,89.223c0,3.359,0.064,3.84,1.92,4l1.024,0.096c0.192,0.128,0.128,0.704-0.064,0.8
		c-1.823-0.064-2.911-0.096-4.192-0.096c-1.279,0-2.398,0.032-4.446,0.096c-0.192-0.096-0.256-0.64,0-0.8l1.151-0.096
		c1.824-0.16,1.984-0.641,1.984-4V74.92c0-0.992,0-1.024-0.96-1.024h-1.76c-1.376,0-3.137,0.064-3.937,0.8
		c-0.768,0.704-1.088,1.408-1.439,2.208c-0.256,0.192-0.704,0.032-0.832-0.224c0.512-1.44,0.992-3.488,1.216-4.768
		c0.096-0.064,0.512-0.096,0.608,0c0.191,1.024,1.247,0.992,2.72,0.992h12.959c1.728,0,2.016-0.064,2.496-0.896
		c0.159-0.064,0.512-0.032,0.575,0.096c-0.352,1.312-0.575,3.904-0.479,4.864c-0.128,0.256-0.672,0.256-0.832,0.064
		c-0.096-0.8-0.32-1.984-0.8-2.336c-0.736-0.544-1.952-0.8-3.712-0.8h-2.271c-0.96,0-0.929,0.032-0.929,1.088V89.223z"/>
	<path clip-path="url(#SVGID_2_)" d="M407.195,86.6c-0.225-0.704-0.353-0.8-1.313-0.8h-4.831c-0.8,0-0.992,0.096-1.216,0.767
		l-1.12,3.361c-0.48,1.439-0.704,2.303-0.704,2.655c0,0.384,0.16,0.576,0.928,0.641l1.057,0.095c0.224,0.161,0.224,0.672-0.064,0.8
		c-0.832-0.063-1.824-0.063-3.328-0.096c-1.056,0-2.207,0.064-3.071,0.096c-0.192-0.128-0.256-0.639-0.064-0.8l1.057-0.095
		c0.768-0.065,1.472-0.416,1.92-1.569c0.575-1.471,1.472-3.551,2.815-7.135l3.264-8.639c0.448-1.152,0.64-1.76,0.544-2.273
		c0.768-0.223,1.312-0.799,1.664-1.215c0.191,0,0.416,0.064,0.479,0.288c0.416,1.408,0.929,2.88,1.408,4.288l4.384,12.862
		c0.928,2.752,1.344,3.233,2.72,3.393l0.865,0.095c0.223,0.161,0.159,0.672,0,0.8c-1.313-0.063-2.433-0.096-3.873-0.096
		c-1.536,0-2.752,0.064-3.68,0.096c-0.256-0.128-0.288-0.639-0.064-0.8l0.929-0.095c0.672-0.065,1.119-0.257,1.119-0.576
		c0-0.353-0.159-0.928-0.415-1.697L407.195,86.6z M400.859,83.751c-0.256,0.736-0.224,0.768,0.672,0.768h3.937
		c0.928,0,0.991-0.128,0.704-0.992l-1.729-5.215c-0.256-0.769-0.544-1.632-0.736-2.016h-0.063c-0.096,0.159-0.416,0.928-0.769,1.888
		L400.859,83.751z"/>
	<path clip-path="url(#SVGID_2_)" d="M420.587,77.704c0-3.359-0.063-3.871-2.08-4.031l-0.8-0.065
		c-0.191-0.128-0.128-0.704,0.064-0.8c1.792,0.065,2.88,0.096,4.159,0.096c1.248,0,2.336-0.031,3.937-0.096
		c0.191,0.096,0.256,0.672,0.063,0.8l-0.768,0.065c-1.888,0.16-1.952,0.672-1.952,4.031V88.84c0,2.015,0.096,2.847,0.672,3.455
		c0.353,0.352,0.96,0.736,3.488,0.736c2.72,0,3.392-0.128,3.904-0.416c0.639-0.384,1.471-1.536,2.11-3.168
		c0.192-0.16,0.801-0.031,0.801,0.193c0,0.351-0.896,3.615-1.345,4.479c-1.632-0.063-4.671-0.096-7.967-0.096h-2.944
		c-1.344,0-2.367,0.033-4.159,0.096c-0.192-0.096-0.256-0.607-0.064-0.8l0.96-0.095c1.856-0.193,1.92-0.641,1.92-4V77.704z"/>
	<path clip-path="url(#SVGID_2_)" d="M287.039,122.01c0,1.278,0.192,2.048,0.769,2.271c0.096,0.096,0.096,0.289-0.032,0.384
		c-0.383,0-0.96,0.128-1.568,0.288c-1.695,0.449-3.999,0.832-5.728,0.832c-3.808,0-7.294-1.055-9.759-3.551
		c-1.92-1.92-2.944-4.448-2.944-7.264c0-2.721,0.896-5.473,2.88-7.583c2.145-2.24,5.312-3.744,10.144-3.744
		c1.824,0,3.52,0.352,4.063,0.479c0.608,0.128,1.601,0.353,1.984,0.288c0,1.057,0.191,2.72,0.479,4.641
		c-0.096,0.256-0.672,0.286-0.863,0.096c-0.896-3.456-3.296-4.544-6.56-4.544c-6.208,0-8.927,4.416-8.927,9.216
		c0,6.143,3.167,10.974,9.599,10.974c1.984,0,3.168-0.416,3.52-0.96c0.16-0.223,0.32-0.8,0.32-1.822v-1.28
		c0-2.688-0.097-2.88-2.08-3.104l-1.408-0.16c-0.256-0.128-0.224-0.703,0-0.8c0.928,0.064,2.688,0.097,4.576,0.097
		c1.247,0,2.336-0.032,3.392-0.097c0.224,0.128,0.256,0.608,0.032,0.8l-0.513,0.064c-1.344,0.16-1.376,1.056-1.376,2.688V122.01z"/>
	<path clip-path="url(#SVGID_2_)" d="M297.283,108.953c0-3.327-0.063-3.807-1.951-4.031l-0.513-0.063
		c-0.191-0.128-0.128-0.704,0.064-0.8c1.376,0.063,2.464,0.096,3.775,0.096h6.016c2.048,0,3.936,0,4.319-0.096
		c0.192,0.544,0.385,2.848,0.513,4.256c-0.128,0.191-0.641,0.256-0.8,0.063c-0.48-1.504-0.769-2.624-2.432-3.04
		c-0.673-0.16-1.696-0.191-3.104-0.191h-2.304c-0.96,0-0.96,0.063-0.96,1.279v6.4c0,0.895,0.096,0.895,1.056,0.895h1.856
		c1.344,0,2.336-0.063,2.72-0.19s0.607-0.321,0.768-1.12l0.256-1.313c0.16-0.191,0.704-0.191,0.832,0.031
		c0,0.77-0.128,2.018-0.128,3.233c0,1.15,0.128,2.367,0.128,3.071c-0.128,0.225-0.672,0.225-0.832,0.031l-0.287-1.248
		c-0.129-0.576-0.353-1.056-0.992-1.216c-0.448-0.128-1.217-0.16-2.464-0.16h-1.856c-0.96,0-1.056,0.032-1.056,0.864v4.512
		c0,1.695,0.096,2.783,0.608,3.327c0.385,0.385,1.056,0.737,3.871,0.737c2.464,0,3.392-0.128,4.096-0.48
		c0.576-0.319,1.44-1.439,2.272-3.104c0.224-0.161,0.672-0.064,0.8,0.224c-0.225,1.119-1.024,3.583-1.44,4.448
		c-2.88-0.064-5.728-0.096-8.575-0.096h-2.88c-1.376,0-2.464,0.031-4.352,0.096c-0.192-0.096-0.256-0.608-0.063-0.8l1.056-0.097
		c1.823-0.159,1.983-0.641,1.983-4V108.953z M301.379,102.682c-0.224-0.063-0.416-0.416-0.319-0.768l4.512-3.679
		c0.384-0.256,0.672-0.416,0.863-0.416c0.225,0,0.641,0.223,0.896,0.735c0.319,0.608,0.319,1.057,0.224,1.313
		c-0.128,0.16-0.352,0.32-0.832,0.511L301.379,102.682z"/>
	<path clip-path="url(#SVGID_2_)" d="M336.547,119.834c0,0.96,0,4.768,0.096,5.6c-0.064,0.19-0.256,0.351-0.608,0.351
		c-0.384-0.544-1.312-1.664-4.096-4.832l-7.423-8.446c-0.865-0.991-3.04-3.615-3.712-4.319h-0.064
		c-0.128,0.383-0.159,1.12-0.159,2.08v6.975c0,1.504,0.031,5.663,0.575,6.623c0.192,0.353,0.832,0.544,1.632,0.609l0.992,0.095
		c0.192,0.256,0.16,0.641-0.063,0.8c-1.44-0.063-2.561-0.096-3.744-0.096c-1.344,0-2.208,0.033-3.328,0.096
		c-0.224-0.159-0.256-0.606-0.063-0.8l0.864-0.095c0.735-0.097,1.247-0.288,1.407-0.642c0.448-1.15,0.416-5.056,0.416-6.591v-9.248
		c0-0.895-0.032-1.566-0.704-2.304c-0.447-0.448-1.216-0.671-1.983-0.767l-0.544-0.065c-0.192-0.191-0.192-0.671,0.063-0.799
		c1.345,0.095,3.04,0.095,3.616,0.095c0.512,0,1.056-0.031,1.472-0.095c0.64,1.631,4.416,5.854,5.472,7.04l3.104,3.487
		c2.208,2.464,3.776,4.256,5.28,5.792h0.063c0.129-0.16,0.129-0.673,0.129-1.346v-6.846c0-1.504-0.033-5.665-0.641-6.624
		c-0.192-0.289-0.704-0.48-1.984-0.64l-0.544-0.065c-0.224-0.191-0.191-0.704,0.064-0.799c1.472,0.063,2.56,0.095,3.775,0.095
		c1.376,0,2.208-0.031,3.296-0.095c0.256,0.16,0.256,0.607,0.064,0.799l-0.448,0.065c-1.023,0.159-1.664,0.416-1.793,0.672
		c-0.543,1.15-0.479,5.119-0.479,6.592V119.834z"/>
	<path clip-path="url(#SVGID_2_)" d="M347.827,108.953c0-3.327-0.063-3.807-1.951-4.031l-0.513-0.063
		c-0.191-0.128-0.127-0.704,0.064-0.8c1.376,0.063,2.464,0.096,3.775,0.096h6.016c2.048,0,3.936,0,4.319-0.096
		c0.192,0.544,0.385,2.848,0.513,4.256c-0.128,0.191-0.641,0.256-0.8,0.063c-0.48-1.504-0.769-2.624-2.432-3.04
		c-0.673-0.16-1.696-0.191-3.104-0.191h-2.304c-0.96,0-0.96,0.063-0.96,1.279v6.4c0,0.895,0.096,0.895,1.056,0.895h1.856
		c1.344,0,2.336-0.063,2.72-0.19s0.607-0.321,0.768-1.12l0.256-1.313c0.16-0.191,0.704-0.191,0.832,0.031
		c0,0.77-0.128,2.018-0.128,3.233c0,1.15,0.128,2.367,0.128,3.071c-0.128,0.225-0.672,0.225-0.832,0.031l-0.287-1.248
		c-0.129-0.576-0.353-1.056-0.992-1.216c-0.448-0.128-1.216-0.16-2.464-0.16h-1.856c-0.96,0-1.056,0.032-1.056,0.864v4.512
		c0,1.695,0.096,2.783,0.608,3.327c0.385,0.385,1.056,0.737,3.871,0.737c2.464,0,3.392-0.128,4.097-0.48
		c0.575-0.319,1.439-1.439,2.271-3.104c0.224-0.161,0.672-0.064,0.8,0.224c-0.225,1.119-1.024,3.583-1.44,4.448
		c-2.88-0.064-5.728-0.096-8.575-0.096h-2.88c-1.376,0-2.464,0.031-4.352,0.096c-0.192-0.096-0.256-0.608-0.063-0.8l1.056-0.097
		c1.823-0.159,1.983-0.641,1.983-4V108.953z M351.923,102.682c-0.224-0.063-0.416-0.416-0.319-0.768l4.512-3.679
		c0.384-0.256,0.672-0.416,0.863-0.416c0.225,0,0.641,0.223,0.896,0.735c0.319,0.608,0.319,1.057,0.224,1.313
		c-0.128,0.16-0.352,0.32-0.832,0.511L351.923,102.682z"/>
	<path clip-path="url(#SVGID_2_)" d="M369.859,108.986c0-3.04-0.097-3.584-1.408-3.744l-1.023-0.128
		c-0.225-0.159-0.225-0.672,0.031-0.8c1.792-0.16,4-0.257,7.136-0.257c1.984,0,3.872,0.16,5.344,0.96
		c1.536,0.801,2.655,2.24,2.655,4.48c0,3.04-2.399,4.704-3.999,5.343c-0.16,0.193,0,0.512,0.159,0.77
		c2.561,4.127,4.256,6.687,6.432,8.511c0.544,0.479,1.345,0.832,2.208,0.896c0.16,0.064,0.192,0.319,0.032,0.447
		c-0.288,0.097-0.8,0.161-1.408,0.161c-2.72,0-4.352-0.8-6.623-4.032c-0.832-1.184-2.144-3.391-3.136-4.832
		c-0.48-0.704-0.992-1.022-2.271-1.022c-1.44,0-1.504,0.03-1.504,0.703v4.031c0,3.36,0.063,3.743,1.919,4l0.673,0.097
		c0.191,0.159,0.128,0.704-0.064,0.8c-1.439-0.064-2.527-0.096-3.808-0.096c-1.344,0-2.496,0.031-4,0.096
		c-0.191-0.096-0.256-0.577-0.063-0.8l0.8-0.097c1.855-0.224,1.92-0.64,1.92-4V108.986z M372.483,113.562
		c0,0.575,0,0.929,0.096,1.057c0.096,0.095,0.576,0.16,2.208,0.16c1.151,0,2.367-0.128,3.296-0.832c0.863-0.672,1.6-1.792,1.6-3.969
		c0-2.527-1.568-4.928-5.12-4.928c-1.983,0-2.079,0.128-2.079,1.024V113.562z"/>
	<path clip-path="url(#SVGID_2_)" d="M405.18,117.85c-0.224-0.704-0.352-0.8-1.313-0.8h-4.831c-0.8,0-0.991,0.096-1.216,0.767
		l-1.121,3.361c-0.479,1.438-0.702,2.303-0.702,2.654c0,0.385,0.159,0.576,0.928,0.642l1.056,0.095
		c0.224,0.161,0.224,0.672-0.063,0.8c-0.832-0.063-1.824-0.063-3.328-0.096c-1.057,0-2.208,0.064-3.072,0.096
		c-0.192-0.128-0.256-0.639-0.063-0.8l1.056-0.095c0.769-0.065,1.472-0.416,1.92-1.569c0.576-1.471,1.472-3.551,2.815-7.135
		l3.265-8.639c0.447-1.152,0.64-1.761,0.544-2.273c0.768-0.223,1.312-0.799,1.663-1.215c0.191,0,0.416,0.063,0.48,0.288
		c0.416,1.408,0.928,2.88,1.408,4.288l4.383,12.861c0.929,2.752,1.345,3.233,2.721,3.394l0.863,0.095c0.225,0.161,0.16,0.672,0,0.8
		c-1.312-0.063-2.432-0.096-3.872-0.096c-1.535,0-2.751,0.064-3.679,0.096c-0.257-0.128-0.288-0.639-0.064-0.8l0.928-0.095
		c0.672-0.065,1.12-0.257,1.12-0.576c0-0.353-0.16-0.928-0.416-1.697L405.18,117.85z M398.845,115.002
		c-0.256,0.735-0.225,0.768,0.672,0.768h3.936c0.928,0,0.992-0.128,0.704-0.992l-1.728-5.215c-0.257-0.769-0.545-1.632-0.736-2.016
		h-0.064c-0.096,0.158-0.416,0.928-0.768,1.888L398.845,115.002z"/>
	<path clip-path="url(#SVGID_2_)" d="M420.62,108.953c0-3.358-0.064-3.87-2.08-4.03l-0.8-0.065c-0.192-0.128-0.128-0.704,0.063-0.8
		c1.792,0.065,2.879,0.096,4.16,0.096c1.248,0,2.336-0.03,3.936-0.096c0.192,0.096,0.256,0.672,0.064,0.8l-0.769,0.065
		c-1.888,0.16-1.951,0.672-1.951,4.03v11.137c0,2.015,0.096,2.847,0.672,3.455c0.351,0.352,0.96,0.735,3.487,0.735
		c2.72,0,3.392-0.128,3.903-0.416c0.641-0.384,1.473-1.536,2.112-3.168c0.192-0.16,0.8-0.03,0.8,0.193
		c0,0.351-0.896,3.615-1.344,4.479c-1.632-0.063-4.672-0.096-7.968-0.096h-2.943c-1.344,0-2.368,0.033-4.16,0.096
		c-0.191-0.096-0.256-0.606-0.063-0.8l0.96-0.095c1.855-0.193,1.92-0.641,1.92-4V108.953z"/>
	<path clip-path="url(#SVGID_2_)" d="M269.798,138.307c0-1.711-0.036-2.053-0.864-2.143l-0.343-0.037
		c-0.18-0.09-0.18-0.611,0.036-0.629c1.513-0.092,2.917-0.162,4.825-0.162c1.477,0,2.953,0.143,4.195,0.594
		c2.359,0.846,3.655,2.971,3.655,5.221c0,2.414-1.152,4.357-3.223,5.385c-1.225,0.611-2.701,0.846-4.556,0.846
		c-0.846,0-1.746-0.107-2.395-0.107c-0.864,0-1.782,0.018-2.809,0.054c-0.145-0.108-0.145-0.54,0-0.63l0.558-0.09
		c0.811-0.127,0.919-0.271,0.919-1.928V138.307z M272.372,144.014c0,0.99,0.036,1.639,0.36,2.018
		c0.324,0.359,0.846,0.521,1.494,0.521c3.115,0,4.178-2.773,4.178-5.223c0-3.24-1.711-5.166-4.971-5.166
		c-0.485,0-0.827,0.09-0.936,0.234c-0.107,0.143-0.126,0.484-0.126,1.043V144.014z"/>
	<path clip-path="url(#SVGID_2_)" d="M289.744,140.07c0,0.504,0.018,0.541,0.504,0.541h1.242c0.937,0,1.152-0.127,1.332-0.99
		l0.091-0.451c0.126-0.145,0.576-0.145,0.666,0.018c-0.036,0.576-0.054,1.225-0.054,1.91c0,0.684,0.018,1.332,0.054,1.908
		c-0.09,0.162-0.54,0.18-0.666,0.018l-0.091-0.449c-0.18-0.865-0.396-1.01-1.332-1.01h-1.242c-0.486,0-0.504,0.02-0.504,0.559v2.143
		c0,0.828,0.071,1.404,0.288,1.711c0.232,0.324,0.576,0.469,1.891,0.469c1.566,0,2.179-0.055,3.169-2.09
		c0.144-0.197,0.594-0.125,0.666,0.09c-0.072,0.937-0.504,2.395-0.757,2.881c-0.954-0.035-2.683-0.053-4.159-0.053h-2.341
		c-0.864,0-1.746,0.018-3.097,0.053c-0.144-0.107-0.144-0.539,0-0.629l0.847-0.127c0.81-0.125,0.918-0.234,0.918-1.891v-6.715
		c0-1.639-0.108-1.749-0.918-1.91l-0.45-0.09c-0.162-0.107-0.145-0.521,0.036-0.629c0.845,0.035,1.729,0.053,2.593,0.053h3.816
		c1.152,0,2.179-0.018,2.413-0.053c0.019,0.287,0.145,1.584,0.234,2.791c-0.072,0.197-0.486,0.232-0.666,0.07
		c-0.198-0.629-0.45-1.17-0.685-1.422c-0.342-0.342-0.882-0.56-1.765-0.56h-1.44c-0.594,0-0.594,0.038-0.594,0.704V140.07z"/>
	<path clip-path="url(#SVGID_2_)" d="M307.706,135.965c-0.144-0.143-0.144-0.576,0.054-0.629c0.612,0.035,1.387,0.053,2.27,0.053
		c0.594,0,1.116,0,1.764-0.053c0,1.115,0.631,2.215,1.423,3.906l1.188,2.539c0.162,0.359,0.811,1.494,1.063,1.945
		c0.233-0.434,0.521-0.991,1.008-2.053l0.918-1.98c0.864-1.855,1.314-2.811,1.711-4.357c0.828,0.07,1.242,0.053,1.782,0.053
		c0.595,0,1.423-0.018,2.071-0.053c0.197,0.107,0.197,0.449,0.054,0.629l-0.522,0.09c-0.738,0.127-1.098,0.344-1.098,1.297
		c0,3.709,0.035,5.654,0.144,7.922c0.036,0.828,0.108,1.262,0.811,1.352l0.576,0.072c0.144,0.143,0.144,0.557-0.036,0.629
		c-0.828-0.035-1.603-0.053-2.484-0.053c-0.811,0-1.801,0.018-2.665,0.053c-0.216-0.091-0.234-0.504-0.055-0.629l0.541-0.072
		c0.828-0.109,0.828-0.324,0.828-1.424l-0.036-4.68v-2.053h-0.036c-1.332,2.881-2.772,5.887-3.961,8.93
		c-0.09,0.072-0.217,0.127-0.36,0.127c-0.162,0-0.36-0.037-0.468-0.109c-0.702-2.232-2.917-6.697-3.926-9.037h-0.035
		c-0.072,1.17-0.091,1.961-0.108,2.897c-0.018,1.171-0.036,2.972-0.036,4.052c0,0.9,0.107,1.152,0.828,1.26l0.702,0.109
		c0.145,0.125,0.108,0.538-0.036,0.629c-0.666-0.035-1.44-0.053-2.124-0.053c-0.576,0-1.261,0.018-1.981,0.053
		c-0.233-0.072-0.233-0.539-0.071-0.629l0.324-0.055c0.918-0.162,1.025-0.27,1.134-1.387c0.09-0.883,0.145-2.449,0.252-4.158
		c0.072-1.207,0.108-2.666,0.108-3.639c0-1.025-0.396-1.295-1.116-1.422L307.706,135.965z"/>
	<path clip-path="url(#SVGID_2_)" d="M340.147,141.277c0,3.924-2.629,6.283-6.5,6.283c-3.619,0-6.248-2.377-6.248-6.139
		c0-3.566,2.665-6.32,6.428-6.32C337.572,135.102,340.147,137.621,340.147,141.277 M333.684,135.93c-2.215,0-3.403,2.07-3.403,5.078
		c0,2.195,0.774,5.725,3.709,5.725c2.359,0,3.277-2.305,3.277-5.221C337.267,138.432,335.916,135.93,333.684,135.93"/>
	<path clip-path="url(#SVGID_2_)" d="M355.809,144.211c0,1.172,0,2.305,0.036,2.9c-0.126,0.215-0.63,0.414-1.062,0.414
		c-0.019,0-0.612-0.919-1.459-1.963l-4.159-5.15c-1.044-1.277-1.639-2.033-1.963-2.306c-0.09,0.181-0.09,0.487-0.09,1.153v3.494
		c0,1.457,0.072,2.809,0.271,3.295c0.162,0.377,0.576,0.504,1.044,0.576l0.504,0.072c0.145,0.143,0.108,0.521,0,0.629
		c-0.972-0.035-1.692-0.053-2.412-0.053c-0.666,0-1.333,0.018-2.017,0.053c-0.108-0.107-0.145-0.486,0-0.629l0.306-0.055
		c0.486-0.09,0.847-0.217,0.99-0.594c0.197-0.486,0.252-1.838,0.252-3.295v-4.574c0-0.99-0.018-1.277-0.126-1.529
		c-0.144-0.307-0.396-0.523-1.026-0.613l-0.504-0.072c-0.126-0.143-0.108-0.576,0.072-0.629c0.846,0.035,1.746,0.053,2.484,0.053
		c0.612,0,1.135-0.018,1.513-0.053c0.18,0.809,1.351,2.178,2.971,4.104l1.513,1.783c0.792,0.938,1.314,1.566,1.729,1.98
		c0.071-0.18,0.071-0.486,0.071-0.811v-2.484c0-1.459-0.071-2.809-0.27-3.295c-0.162-0.377-0.558-0.504-1.044-0.576l-0.486-0.072
		c-0.145-0.143-0.108-0.521,0-0.629c0.973,0.035,1.675,0.053,2.413,0.053c0.666,0,1.313-0.018,2.017-0.053
		c0.107,0.107,0.144,0.486,0,0.629l-0.324,0.055c-0.469,0.072-0.811,0.217-0.972,0.594c-0.199,0.486-0.271,1.836-0.271,3.295
		V144.211z"/>
	<path clip-path="url(#SVGID_2_)" d="M365.984,136.74c0-0.434,0-0.523-0.433-0.523h-1.116c-1.314,0-1.692,0.721-2.232,2.035
		c-0.216,0.107-0.559,0.072-0.666-0.162c0.378-1.242,0.469-2.359,0.594-3.061c0.072-0.055,0.162-0.09,0.252-0.09
		s0.181,0.018,0.252,0.071c0.091,0.306,0.145,0.378,1.513,0.378h6.698c1.188,0,1.458-0.018,1.62-0.396
		c0.072-0.035,0.126-0.053,0.234-0.053s0.234,0.071,0.271,0.125c-0.181,0.613-0.307,2.07-0.271,3.098
		c-0.09,0.162-0.576,0.197-0.666,0.055c-0.307-1.152-0.559-2-1.909-2h-1.08c-0.432,0-0.486,0.055-0.486,0.523v7.939
		c0,1.674,0.108,1.818,0.919,1.928l0.72,0.09c0.126,0.107,0.126,0.521,0,0.629c-1.17-0.035-2.07-0.053-2.881-0.053
		c-0.864,0-1.801,0.018-3.061,0.053c-0.145-0.107-0.145-0.521,0-0.629l0.81-0.09c0.811-0.092,0.919-0.254,0.919-1.928V136.74z"/>
	<path clip-path="url(#SVGID_2_)" d="M378.85,138.307c0-1.801-0.036-2-0.792-2.107l-0.486-0.072c-0.18-0.09-0.18-0.539,0.036-0.629
		c1.351-0.092,2.755-0.162,4.465-0.162c1.531,0,2.846,0.232,3.529,0.646c1.045,0.613,1.585,1.514,1.585,2.666
		c0,1.602-1.081,2.287-1.909,2.701c-0.18,0.09-0.18,0.197-0.09,0.395c1.188,2.414,1.927,3.764,2.791,4.502
		c0.468,0.379,0.937,0.486,1.206,0.504c0.162,0.09,0.162,0.361,0.072,0.469c-0.288,0.127-0.864,0.162-1.423,0.162
		c-1.656,0-2.7-0.594-3.492-1.891c-0.576-0.955-0.991-1.835-1.405-2.791c-0.216-0.486-0.504-0.631-0.954-0.631
		c-0.63,0-0.666,0.037-0.666,0.396v2.215c0,1.656,0.108,1.783,0.918,1.928l0.486,0.09c0.126,0.09,0.126,0.521,0,0.629
		c-0.954-0.035-1.782-0.053-2.646-0.053c-0.9,0-1.692,0.018-2.629,0.053c-0.145-0.107-0.145-0.539,0-0.629l0.486-0.09
		c0.81-0.145,0.918-0.271,0.918-1.928V138.307z M381.316,140.592c0,0.631,0.054,0.686,1.116,0.686c0.648,0,1.026-0.162,1.368-0.504
		c0.307-0.307,0.648-0.883,0.648-1.945c0-1.621-0.954-2.664-2.358-2.664c-0.738,0-0.774,0.053-0.774,0.918V140.592z"/>
	<path clip-path="url(#SVGID_2_)" d="M397.754,140.07c0,0.504,0.018,0.541,0.504,0.541h1.242c0.937,0,1.152-0.127,1.332-0.99
		l0.091-0.451c0.126-0.145,0.576-0.145,0.666,0.018c-0.036,0.576-0.054,1.225-0.054,1.91c0,0.684,0.018,1.332,0.054,1.908
		c-0.09,0.162-0.54,0.18-0.666,0.018l-0.091-0.449c-0.18-0.865-0.396-1.01-1.332-1.01h-1.242c-0.486,0-0.504,0.02-0.504,0.559v2.142
		c0,0.829,0.071,1.405,0.288,1.712c0.233,0.324,0.576,0.469,1.891,0.469c1.566,0,2.179-0.056,3.169-2.09
		c0.144-0.197,0.594-0.125,0.666,0.09c-0.072,0.938-0.504,2.395-0.757,2.881c-0.954-0.035-2.683-0.053-4.159-0.053h-2.341
		c-0.864,0-1.746,0.018-3.097,0.053c-0.144-0.107-0.144-0.539,0-0.629l0.847-0.127c0.81-0.125,0.919-0.234,0.919-1.891v-6.715
		c0-1.639-0.109-1.748-0.919-1.91l-0.45-0.09c-0.162-0.107-0.145-0.521,0.035-0.629c0.847,0.035,1.729,0.053,2.594,0.053h3.816
		c1.152,0,2.179-0.018,2.413-0.053c0.019,0.287,0.145,1.584,0.234,2.791c-0.072,0.197-0.486,0.232-0.666,0.07
		c-0.198-0.629-0.45-1.17-0.685-1.422c-0.342-0.342-0.882-0.559-1.765-0.559h-1.44c-0.594,0-0.594,0.037-0.594,0.703V140.07z
		 M400.616,131.932c0.288-0.216,0.469-0.306,0.595-0.306c0.18,0,0.396,0.145,0.612,0.559c0.216,0.378,0.216,0.647,0.18,0.773
		c-0.036,0.144-0.216,0.343-0.576,0.45l-3.529,1.152c-0.144-0.053-0.252-0.252-0.198-0.449L400.616,131.932z"/>
	<path clip-path="url(#SVGID_2_)" d="M411.687,143.203c-0.432,0-0.485,0.018-0.593,0.361l-0.703,2.088
		c-0.108,0.359-0.126,0.504-0.126,0.648c0,0.107,0.234,0.215,0.738,0.307l0.54,0.09c0.108,0.125,0.144,0.539-0.036,0.629
		c-0.63-0.035-1.278-0.035-2.034-0.053c-0.612,0-1.026,0.053-1.854,0.053c-0.198-0.107-0.181-0.486-0.055-0.629l0.486-0.055
		c0.433-0.055,0.792-0.197,1.099-0.9c0.306-0.721,0.647-1.584,1.134-2.881l1.639-4.393c0.414-1.135,0.721-1.766,0.666-2.287
		c0.864-0.199,1.53-1.08,1.566-1.08c0.234,0,0.343,0.09,0.414,0.359c0.145,0.521,0.36,1.189,0.811,2.467l2.449,7.059
		c0.378,1.08,0.54,1.494,1.206,1.602l0.686,0.109c0.106,0.09,0.143,0.521-0.02,0.629c-0.864-0.035-1.837-0.053-2.771-0.053
		c-0.901,0-1.604,0.018-2.432,0.053c-0.198-0.107-0.234-0.486-0.036-0.629l0.576-0.09c0.414-0.072,0.486-0.199,0.486-0.307
		c0-0.127-0.126-0.559-0.343-1.225l-0.486-1.549c-0.09-0.287-0.233-0.324-0.864-0.324H411.687z M413.739,142.25
		c0.414,0,0.505-0.055,0.36-0.523l-0.468-1.457c-0.252-0.775-0.576-1.748-0.738-2.125c-0.145,0.414-0.505,1.387-0.774,2.215
		l-0.45,1.35c-0.162,0.486-0.072,0.541,0.378,0.541H413.739z"/>
	<path clip-path="url(#SVGID_2_)" d="M428.143,144.283c0,0.848,0.072,1.424,0.307,1.711c0.233,0.307,0.558,0.451,1.872,0.451
		c1.639,0,2.143-0.055,3.205-2.143c0.144-0.182,0.559-0.109,0.685,0.107c-0.09,0.935-0.522,2.43-0.774,2.916
		c-0.954-0.035-2.683-0.053-4.159-0.053h-2.413c-0.828,0-1.729,0.018-2.845,0.053c-0.162-0.107-0.198-0.521-0.054-0.629l0.684-0.09
		c0.811-0.109,0.919-0.254,0.919-1.928v-6.697c0-1.676-0.108-1.838-0.919-1.945l-0.521-0.072c-0.181-0.107-0.181-0.521,0.036-0.629
		c0.936,0.035,1.836,0.053,2.7,0.053s1.765-0.018,2.665-0.053c0.144,0.107,0.144,0.521,0,0.629l-0.469,0.072
		c-0.81,0.127-0.918,0.27-0.918,1.945V144.283z"/>
</g>
</svg>
